<svg width="263" height="334" viewBox="0 0 263 334" fill="none" xmlns="http://www.w3.org/2000/svg">
<rect width="263" height="334" rx="32" fill="white"/>
<path d="M263 257.297C239.014 265.531 213.279 270 186.5 270C153.249 270 121.608 263.109 92.927 250.677C118.934 214.93 161.096 191.693 208.686 191.693C227.912 191.693 246.253 195.486 263 202.364V199.126C246.21 192.396 227.88 188.693 208.686 188.693C206.173 188.693 203.675 188.757 201.193 188.882C214.411 173.404 234.068 163.591 256.017 163.591C258.372 163.591 260.702 163.704 263 163.925V160.912C260.701 160.7 258.371 160.591 256.017 160.591C232.125 160.591 210.841 171.753 197.094 189.146C153.064 192.604 114.521 215.586 90.1198 249.439C54.5047 233.444 23.5852 208.857 0 178.317V183.175C23.4503 212.553 53.6968 236.267 88.3587 251.936C72.2624 275.279 62.7831 303.537 62.6297 334H65.6297C65.7841 303.968 75.1926 276.125 91.1494 253.176C120.351 265.927 152.599 273 186.5 273C213.258 273 238.987 268.594 263 260.467V257.297Z" fill="#EFF0F6"/>
<path d="M262.542 307.425C260.393 307.618 258.216 307.717 256.017 307.717C231.363 307.717 209.601 295.337 196.608 276.455H193C206.379 297.076 229.605 310.717 256.017 310.717C257.983 310.717 259.932 310.641 261.861 310.493C262.136 309.489 262.364 308.466 262.542 307.425Z" fill="#EFF0F6"/>
</svg>
