<svg width="1440" height="612" viewBox="0 0 1440 612" fill="none" xmlns="http://www.w3.org/2000/svg">
<path d="M0 89.9997C0 89.9997 284 0 720 -0.00024414C1156 -0.00048828 1440 89.9997 1440 89.9997V607H0V89.9997Z" fill="url(#paint0_radial)"/>
<mask id="mask0" mask-type="alpha" maskUnits="userSpaceOnUse" x="0" y="-1" width="1440" height="608">
<path d="M0 89.9997C0 89.9997 284 0 720 -0.00024414C1156 -0.00048828 1440 89.9997 1440 89.9997V607H0V89.9997Z" fill="url(#paint1_radial)"/>
</mask>
<g mask="url(#mask0)">
<g opacity="0.2">
<path fill-rule="evenodd" clip-rule="evenodd" d="M1443.29 341.378C1425.12 329.255 1402.16 325.499 1380.16 333.179C1354.31 342.209 1336.27 364.785 1330.76 391.005C1331.73 391.187 1332.7 391.357 1333.67 391.512C1338.98 366.313 1356.33 344.679 1381.06 336.043C1402.09 328.698 1424.12 332.272 1441.58 343.903C1442.16 343.069 1442.73 342.228 1443.29 341.378ZM1335.9 432.695C1348.68 471.972 1388.88 492.978 1425.97 480.025C1463.36 466.968 1483.87 424.2 1471.43 384.317C1470.39 381.001 1469.17 377.813 1467.76 374.762C1468.46 373.875 1469.15 372.982 1469.83 372.081C1471.55 375.65 1473.04 379.404 1474.26 383.328C1487.16 424.669 1465.94 469.244 1426.87 482.889C1387.79 496.534 1345.66 474.081 1332.77 432.74C1332.73 432.61 1332.69 432.481 1332.65 432.351C1333.73 432.478 1334.82 432.592 1335.9 432.695Z" fill="white"/>
<path d="M1397.33 423.648C1317.4 451.56 1231.11 405.651 1204.68 320.923C1178.25 236.195 1221.76 144.957 1301.69 117.045C1381.61 89.1336 1467.9 135.043 1494.33 219.771C1520.76 304.499 1477.25 395.737 1397.33 423.648Z" stroke="#EEEFF6" stroke-width="3"/>
<path fill-rule="evenodd" clip-rule="evenodd" d="M175.388 352.019C171.376 351.53 167.353 350.785 163.336 349.776C155.924 347.912 148.917 345.241 142.378 341.875C142.324 342.988 142.28 344.1 142.246 345.211C148.626 348.386 155.43 350.923 162.602 352.726C166.599 353.731 170.601 354.481 174.593 354.985C174.862 353.999 175.127 353.01 175.388 352.019ZM130.519 449.979C106.755 405.822 98.7635 352.298 112.041 298.942C122.673 256.214 145.39 219.845 175.406 192.82C175.119 191.744 174.826 190.67 174.528 189.598C143.543 217.117 120.084 254.372 109.172 298.221C108.16 302.289 107.269 306.359 106.498 310.425C89.6272 286.371 82.916 254.875 90.7267 223.487C99.9222 186.533 126.945 158.973 159.746 148.305C159.336 147.378 158.922 146.454 158.504 145.532C124.912 156.602 97.2809 184.899 87.8581 222.765C79.5715 256.067 87.1751 289.501 105.76 314.533C97.4077 363.672 106.415 412.158 128.602 452.721C129.245 451.811 129.884 450.897 130.519 449.979ZM152.348 487.284C152.974 486.47 153.596 485.652 154.215 484.831C179.842 515.168 214.475 537.876 255.344 548.15C362.037 574.972 470.919 506.927 498.498 396.097C526.077 285.266 461.887 173.711 355.194 146.889C304.071 134.037 252.446 142.966 209.503 167.946C209.197 166.966 208.888 165.988 208.574 165.012C216.312 160.54 224.326 156.58 232.565 153.166C226.7 150.342 220.476 148.07 213.938 146.426C209.657 145.35 205.369 144.575 201.094 144.089C200.674 143.022 200.248 141.958 199.817 140.897C204.757 141.377 209.719 142.23 214.672 143.476C222.334 145.402 229.575 148.165 236.329 151.65C273.424 137.142 314.833 133.607 355.928 143.938C464.23 171.165 529.345 284.383 501.366 396.818C473.388 509.253 362.911 578.328 254.61 551.101C213.325 540.722 178.317 517.848 152.348 487.284ZM216.896 348.1C249.982 337.582 277.293 309.906 286.548 272.715C294.62 240.277 287.182 207.723 269.048 183.388C270.1 183.121 271.155 182.864 272.212 182.619C290.288 207.543 297.598 240.555 289.416 273.437C279.748 312.291 250.908 341.07 216.129 351.501C216.391 350.368 216.646 349.234 216.896 348.1Z" fill="#EEEFF6"/>
<path d="M-23.7079 -53.7321C152.302 -9.34297 258.244 174.835 212.884 357.662C167.525 540.489 -11.9467 652.686 -187.957 608.297C-363.967 563.908 -469.908 379.73 -424.549 196.903C-379.19 14.076 -199.718 -98.1212 -23.7079 -53.7321Z" stroke="#EEEFF6" stroke-width="3"/>
</g>
</g>
<defs>
<radialGradient id="paint0_radial" cx="0" cy="0" r="1" gradientUnits="userSpaceOnUse" gradientTransform="translate(1211.5 607) rotate(-145.081) scale(1060.41 803.02)">
<stop stop-color="#A7C9FB"/>
<stop offset="0.0001" stop-color="#A7CBFF"/>
<stop offset="1" stop-color="#8DB7F6"/>
</radialGradient>
<radialGradient id="paint1_radial" cx="0" cy="0" r="1" gradientUnits="userSpaceOnUse" gradientTransform="translate(1211.5 607) rotate(-145.081) scale(1060.41 803.02)">
<stop stop-color="#A7C9FB"/>
<stop offset="0.0001" stop-color="#A7CBFF"/>
<stop offset="1" stop-color="#8DB7F6"/>
</radialGradient>
</defs>
</svg>
