<svg width="1440" height="701" viewBox="0 0 1440 701" fill="none" xmlns="http://www.w3.org/2000/svg">
<path d="M1440 583.185C1216.29 659.829 973.794 701 720.5 701C466.828 701 223.989 659.706 0 582.842V125.938C223.989 44.3458 466.828 0 720.5 0C973.794 0 1216.29 44.214 1440 125.574V583.185Z" fill="url(#paint0_radial)"/>
<mask id="mask0" mask-type="alpha" maskUnits="userSpaceOnUse" x="0" y="0" width="1440" height="699">
<path fill-rule="evenodd" clip-rule="evenodd" d="M1440 581.96C1216.29 658.133 973.794 699 720.5 699C466.828 699 223.989 658.011 0 581.62L0 126.456C223.989 44.5493 466.828 0 720.5 0C973.794 0 1216.29 44.4168 1440 126.091V581.96Z" fill="url(#paint1_radial)"/>
</mask>
<g mask="url(#mask0)">
<g opacity="0.2">
<path d="M1343.22 95.5677C1357.85 78.2361 1378.7 69.2521 1399.74 69.1257C1399.66 70.127 1399.58 71.1278 1399.48 72.1278C1379.39 72.3235 1359.49 80.9429 1345.51 97.503C1329.06 116.993 1324.82 142.714 1332.02 165.35C1331.1 165.755 1330.17 166.147 1329.24 166.527C1321.63 142.877 1326.01 115.951 1343.22 95.5677Z" fill="#EEEFF6"/>
<path fill-rule="evenodd" clip-rule="evenodd" d="M1351.79 200.302C1298.97 225.208 1234.22 218.825 1186.67 178.69C1121.68 123.825 1113.48 26.6638 1168.34 -38.3259C1223.21 -103.316 1320.37 -111.523 1385.36 -56.6582C1426.63 -21.8175 1445 30.0798 1438.86 79.9635C1442.1 81.9356 1445.22 84.1799 1448.21 86.6992C1479.65 113.241 1483.62 160.244 1457.07 191.684C1430.53 223.124 1383.53 227.095 1352.09 200.553L1351.93 200.416L1351.79 200.302ZM1401.4 158.423C1347.6 222.146 1252.33 230.194 1188.61 176.398C1124.89 122.602 1116.84 27.333 1170.63 -36.3907C1224.43 -100.114 1319.7 -108.162 1383.42 -54.3659C1447.15 -0.569695 1455.19 94.6989 1401.4 158.423ZM1354.75 198.868C1384.92 223.671 1429.51 219.681 1454.78 189.749C1480.26 159.575 1476.44 114.465 1446.27 88.9915C1443.75 86.8664 1441.13 84.9451 1438.43 83.2259C1434.44 110.754 1422.95 137.539 1403.69 160.358C1389.71 176.922 1372.97 189.798 1354.73 198.881L1354.75 198.868Z" fill="#EEEFF6"/>
<path d="M231.746 763.886C228.319 763.403 224.884 762.735 221.453 761.876C214.751 760.199 208.384 757.872 202.401 754.979C202.358 756.073 202.327 757.166 202.307 758.257C208.118 760.971 214.271 763.171 220.724 764.787C224.135 765.641 227.549 766.311 230.956 766.804C231.224 765.834 231.487 764.861 231.746 763.886Z" fill="#EEEFF6"/>
<path d="M189.378 854.651C166.554 813.159 158.735 763.278 171.141 713.718C181.043 674.163 202.404 640.498 230.798 615.377C230.5 614.312 230.194 613.249 229.883 612.188C200.515 637.794 178.41 672.327 168.231 712.989C167.287 716.761 166.458 720.535 165.742 724.307C149.179 701.534 142.447 671.858 149.82 642.406C158.37 608.247 183.797 582.762 214.982 572.616C214.558 571.702 214.128 570.79 213.694 569.881C181.725 580.414 155.687 606.611 146.909 641.677C139.064 673.017 146.717 704.601 165.019 728.345C157.322 774.029 166.121 819.238 187.444 857.349C188.093 856.454 188.738 855.555 189.378 854.651Z" fill="#EEEFF6"/>
<path fill-rule="evenodd" clip-rule="evenodd" d="M551.408 808.907C524.921 914.719 417.672 979.024 311.86 952.537C271.525 942.44 237.221 920.607 211.679 891.592C212.31 890.795 212.938 889.994 213.563 889.19C238.755 917.973 272.673 939.635 312.589 949.627C416.793 975.711 522.413 912.383 548.498 808.179C574.582 703.975 511.254 598.355 407.05 572.27C357.12 559.771 306.865 567.801 265.191 591.019C282.656 644.145 286.511 702.416 273.672 760.687C305.806 751.017 332.182 725.162 340.923 690.243C348.391 660.409 341.387 630.345 324.351 607.46C325.415 607.213 326.483 606.977 327.553 606.752C344.528 630.195 351.412 660.698 343.833 690.972C334.68 727.538 306.76 754.459 272.916 764.034C272.473 765.947 272.013 767.861 271.534 769.774C228.283 942.555 53.1546 1047.56 -119.626 1004.31C-292.407 961.057 -397.411 785.929 -354.16 613.148C-310.909 440.368 -135.781 335.363 36.9995 378.614C138.94 404.132 217.287 475.556 255.513 565.319C260.334 565.81 265.179 566.651 270.019 567.863C277.504 569.737 284.586 572.397 291.197 575.733C327.27 562.331 367.628 559.309 407.778 569.36C513.59 595.847 577.895 703.096 551.408 808.907ZM256.841 568.484C259.511 574.942 261.974 581.492 264.224 588.125C271.684 583.996 279.414 580.345 287.363 577.203C281.666 574.526 275.627 572.359 269.29 570.773C265.138 569.734 260.982 568.975 256.841 568.484ZM36.271 381.524C207.444 424.373 311.472 597.872 268.624 769.045C225.775 940.219 52.2758 1044.25 -118.898 1001.4C-290.071 958.549 -394.099 785.05 -351.25 613.877C-308.402 442.703 -134.902 338.676 36.271 381.524Z" fill="#EEEFF6"/>
</g>
</g>
<defs>
<radialGradient id="paint0_radial" cx="0" cy="0" r="1" gradientUnits="userSpaceOnUse" gradientTransform="translate(1227.5 657.24) rotate(-143.936) scale(1116.45 894.784)">
<stop stop-color="#A7C9FB"/>
<stop offset="0.0001" stop-color="#A7CBFF"/>
<stop offset="1" stop-color="#8DB7F6"/>
</radialGradient>
<radialGradient id="paint1_radial" cx="0" cy="0" r="1" gradientUnits="userSpaceOnUse" gradientTransform="translate(414.5) rotate(43.9494) scale(1047.29 1288.6)">
<stop stop-color="#817FED"/>
<stop offset="1" stop-color="#A7C9FB"/>
</radialGradient>
</defs>
</svg>
