<svg width="1440" height="502" viewBox="0 0 1440 502" fill="none" xmlns="http://www.w3.org/2000/svg">
<mask id="mask0" mask-type="alpha" maskUnits="userSpaceOnUse" x="0" y="0" width="1440" height="502">
<path d="M0 0H1440V502H0V0Z" fill="white"/>
</mask>
<g mask="url(#mask0)">
<mask id="mask1" mask-type="alpha" maskUnits="userSpaceOnUse" x="0" y="-314" width="1440" height="816">
<path d="M0 -314H1440V502H0V-314Z" fill="white"/>
</mask>
<g mask="url(#mask1)">
<path d="M1449.76 212.257L1232.84 203.583L1114.97 264.306L1045.42 313.221L850.661 368.04L491.906 360.11L336.455 283.128L243.818 212.748H-9.7627V511.935H1449.76V212.257Z" fill="url(#paint0_linear)"/>
<path d="M1449.76 212.257H1449.1C1448.55 195.286 1442.92 178.869 1432.94 165.136C1422.95 151.403 1409.07 140.987 1393.09 135.239C1377.11 129.491 1359.77 128.676 1343.33 132.9C1326.88 137.123 1312.08 146.191 1300.85 158.926C1289.01 136.328 1269.02 119.071 1244.94 110.646C1220.86 102.221 1194.47 103.257 1171.13 113.543C1147.78 123.83 1129.21 142.599 1119.17 166.056C1109.14 189.513 1108.38 215.905 1117.06 239.896C1112.78 240.701 1108.91 242.978 1106.12 246.334C1103.33 249.689 1101.81 253.913 1101.8 258.275C1101.8 259.335 1101.89 260.394 1102.06 261.441C1096.18 255.13 1088.09 251.349 1079.48 250.894C1070.87 250.439 1062.42 253.347 1055.91 259.003C1044.58 249.414 1030.46 243.721 1015.64 242.763C1000.83 241.805 986.095 245.633 973.618 253.683C961.142 261.732 951.583 273.578 946.349 287.472C941.115 301.367 940.484 316.575 944.549 330.856C940.444 328.896 935.969 327.835 931.421 327.741C926.874 327.647 922.359 328.524 918.176 330.313C913.994 332.101 910.242 334.76 907.168 338.113C904.094 341.466 901.771 345.435 900.352 349.757C896.725 332.526 887.757 316.877 874.724 305.037C861.69 293.197 845.255 285.769 827.756 283.809C810.258 281.848 792.586 285.456 777.256 294.119C761.926 302.781 749.718 316.057 742.368 332.059C735.301 327.376 727.261 324.363 718.857 323.249C710.453 322.134 701.905 322.947 693.862 325.626C685.818 328.304 678.49 332.778 672.432 338.709C666.374 344.64 661.745 351.871 658.897 359.856C658.897 359.476 658.897 359.096 658.897 358.716C658.899 353.53 657.128 348.498 653.878 344.457C650.627 340.415 646.092 337.607 641.026 336.498C635.959 335.389 630.665 336.046 626.024 338.36C621.382 340.673 617.671 344.505 615.507 349.218C612.547 342.125 608.032 335.788 602.295 330.674C596.557 325.56 589.744 321.8 582.359 319.672C574.973 317.545 567.204 317.104 559.626 318.382C552.047 319.66 544.852 322.625 538.573 327.056C535.765 312.983 528.727 300.102 518.4 290.136C508.073 280.17 494.95 273.594 480.786 271.288C466.621 268.982 452.09 271.055 439.135 277.23C426.18 283.405 415.42 293.388 408.292 305.844C404.987 301.873 400.445 299.126 395.393 298.044C390.341 296.961 385.072 297.607 380.431 299.876C386.548 291.657 389.495 281.507 388.731 271.29C387.967 261.074 383.544 251.475 376.274 244.256C369.003 237.038 359.373 232.684 349.151 231.993C338.929 231.303 328.8 234.323 320.625 240.498C320.625 239.168 320.704 237.839 320.704 236.509C320.705 211.214 312.389 186.62 297.038 166.516C281.686 146.412 260.15 131.913 235.747 125.253C211.345 118.592 185.429 120.14 161.993 129.657C138.557 139.175 118.899 156.134 106.05 177.922C99.9281 170.394 92.2044 164.327 83.4413 160.161C74.6781 155.996 65.0962 153.838 55.3936 153.845C21.6124 153.765 -9.7627 178.318 -9.7627 211.972V312.145C67.8043 270.195 132.153 324.08 132.153 398.64C150.801 387.685 189.49 412.032 209.578 422.068C249.675 344.074 364.949 355.012 370.616 427.609C390.261 407.457 420.386 402.708 442.595 405.874C448.646 408.357 455.013 409.988 461.512 410.718C475.759 416.132 486.84 424.728 491.083 433.735C501.056 422.654 540.377 434.827 551.727 459.633C575.472 448.219 602.748 469.479 594.025 493.461C612.024 471.664 657.029 484.818 667.081 504.906C674.711 466.218 720.491 462.403 727.029 473.246C733.06 461.2 763.438 441.808 780.218 456.008C811.767 399.653 874.121 409.214 885.503 445.291C907.159 400.571 971.175 410.465 982.224 458.699C990.25 433.577 1035.62 407.647 1069.78 428.748C1088.22 334.386 1210.67 331.473 1244.72 393.353C1245.83 300.082 1364.46 289.429 1391.62 322.26C1398.59 300.415 1430.77 291.407 1449.76 308.852V212.257Z" fill="url(#paint1_linear)"/>
<path d="M78.4737 422.147C59.0186 437.977 26.9154 430.569 6.74796 405.7C-13.4195 380.831 -14.0052 347.904 5.43407 332.138C24.8733 316.371 56.9924 323.716 77.1598 348.569C97.3272 373.422 97.8813 406.38 78.4737 422.147Z" fill="#F7F7FD"/>
<path d="M-9.7627 511.935H219.25C210.179 510.352 201.109 499.888 201.441 488.19C194.001 508.468 136.728 525.66 112.397 481.715C85.2965 490.185 21.8973 499.034 -9.7627 470.286V511.935Z" fill="url(#paint2_linear)"/>
<path d="M3.2493 320.297C17.9034 320.311 32.3534 323.733 45.4583 330.29C58.5633 336.848 69.9643 346.363 78.7612 358.083C87.5581 369.803 93.5099 383.407 96.1468 397.822C98.7837 412.237 98.0334 427.068 93.9552 441.143C102.78 429.062 108.088 414.773 109.29 399.861C110.492 384.948 107.541 369.994 100.764 356.655C93.9879 343.317 83.6504 332.115 70.8977 324.292C58.1449 316.469 43.475 312.33 28.514 312.334C15.8708 312.314 3.39958 315.264 -7.89502 320.945C-4.19613 320.511 -0.474967 320.295 3.2493 320.297Z" fill="white"/>
<path d="M124.049 397.738C124.049 401.051 123.896 404.318 123.59 407.536C139.128 402.865 155.735 403.146 171.107 408.34C186.478 413.534 199.852 423.383 209.373 436.521C214.5 415.577 226.363 396.896 243.138 383.348C234.69 385.819 226.829 389.974 220.028 395.561C213.227 401.149 207.626 408.055 203.563 415.863C197.472 408.82 189.937 403.171 181.47 399.298C173.003 395.425 163.801 393.419 154.49 393.416C151.312 393.414 148.138 393.641 144.992 394.097C145.103 392.245 145.182 390.377 145.182 388.493C145.182 376.94 142.906 365.499 138.484 354.826C134.063 344.152 127.582 334.454 119.411 326.285C111.241 318.116 101.542 311.637 90.8675 307.217C80.1929 302.797 68.7523 300.524 57.199 300.526H54.9194C75.1127 307.541 92.6198 320.671 105.008 338.092C117.397 355.513 124.052 376.361 124.049 397.738Z" fill="#CBCBEA"/>
<path d="M13.7924 243.664C13.7866 227.216 19.1181 211.21 28.986 198.05C38.854 184.891 52.7255 175.289 68.5167 170.687C61.0499 168.143 53.0839 167.415 45.2796 168.565C37.4754 169.715 30.0579 172.71 23.6426 177.3C17.2273 181.891 11.9992 187.945 8.39196 194.961C4.78476 201.976 2.9025 209.751 2.90137 217.639C2.90573 228.984 6.81905 239.98 13.9824 248.777C13.8557 247.083 13.7924 245.389 13.7924 243.664Z" fill="white"/>
<path d="M717.832 362.104C724.365 362.1 730.849 363.219 737.002 365.413C739.06 366.157 739.852 363.592 738 361.629C730.932 354.183 721.541 349.365 711.37 347.968C701.2 346.571 690.856 348.678 682.043 353.942C673.23 359.207 666.471 367.315 662.88 376.932C659.289 386.55 659.079 397.103 662.285 406.856C665.048 394.178 672.064 382.827 682.168 374.687C692.273 366.546 704.857 362.106 717.832 362.104Z" fill="white"/>
<path d="M630.356 352.052C635.805 352.047 641.156 353.504 645.851 356.272C650.545 359.04 654.411 363.016 657.045 367.787C658.367 364.751 659.011 361.463 658.93 358.152C658.848 354.842 658.045 351.589 656.576 348.622C655.106 345.654 653.006 343.043 650.422 340.972C647.839 338.901 644.834 337.419 641.618 336.631C638.401 335.842 635.052 335.766 631.803 336.407C628.554 337.048 625.485 338.392 622.809 340.343C620.134 342.294 617.917 344.806 616.314 347.704C614.711 350.601 613.76 353.814 613.528 357.117C618.515 353.805 624.37 352.043 630.356 352.052Z" fill="white"/>
<path d="M548.229 348.348C562.955 348.352 577.078 354.204 587.491 364.617C597.904 375.031 603.756 389.153 603.76 403.879C603.76 405.272 603.76 406.666 603.602 408.027C608.854 399.599 611.067 389.63 609.876 379.772C608.685 369.913 604.16 360.758 597.053 353.824C589.945 346.89 580.68 342.593 570.796 341.646C560.911 340.699 550.999 343.158 542.704 348.617C544.477 348.443 546.329 348.348 548.229 348.348Z" fill="white"/>
<path d="M937.568 340.828C945.92 340.813 954.052 343.507 960.743 348.506C958.117 341.481 953.107 335.601 946.588 331.892C940.069 328.183 932.455 326.882 925.074 328.214C917.693 329.547 911.015 333.429 906.204 339.183C901.393 344.937 898.756 352.198 898.752 359.698C898.754 362.917 899.234 366.118 900.177 369.196C902.458 361.034 907.348 353.843 914.099 348.721C920.851 343.599 929.093 340.827 937.568 340.828Z" fill="white"/>
<path d="M462.209 292.104C473.149 292.117 483.922 294.785 493.603 299.88C503.284 304.976 511.583 312.345 517.788 321.355C523.993 330.365 527.917 340.747 529.224 351.609C530.531 362.471 529.181 373.487 525.291 383.712C531.973 375.019 536.535 364.887 538.612 354.121C540.689 343.355 540.226 332.253 537.257 321.698C534.289 311.143 528.899 301.426 521.515 293.321C514.131 285.215 504.957 278.945 494.723 275.009C484.49 271.073 473.479 269.579 462.567 270.647C451.654 271.715 441.142 275.315 431.865 281.16C422.589 287.006 414.805 294.935 409.132 304.318C403.46 313.701 400.055 324.279 399.189 335.209C404.122 322.507 412.78 311.594 424.026 303.901C435.273 296.208 448.583 292.096 462.209 292.104Z" fill="white"/>
<path d="M739.614 381.528C739.618 370.177 742.089 358.963 746.855 348.662C751.621 338.36 758.569 329.217 767.217 321.866C775.866 314.515 786.008 309.13 796.943 306.086C807.877 303.041 819.343 302.409 830.546 304.233C841.749 306.057 852.422 310.294 861.826 316.65C871.23 323.006 879.141 331.329 885.011 341.044C890.88 350.759 894.569 361.634 895.821 372.915C897.073 384.196 895.859 395.615 892.263 406.381C898.96 393.835 902.351 379.79 902.114 365.57C901.876 351.35 898.02 337.426 890.908 325.11C883.795 312.795 873.662 302.495 861.465 295.183C849.267 287.87 835.407 283.787 821.193 283.318C806.979 282.848 792.88 286.009 780.227 292.501C767.574 298.993 756.783 308.602 748.874 320.422C740.966 332.241 736.199 345.881 735.025 360.054C733.85 374.227 736.307 388.466 742.163 401.426C740.466 394.929 739.609 388.242 739.614 381.528Z" fill="white"/>
<path d="M954.537 323.684C954.538 307.995 960.334 292.858 970.812 281.18C981.291 269.502 995.713 262.106 1011.31 260.41C1026.91 258.715 1042.58 262.84 1055.33 271.993C1068.07 281.147 1076.98 294.684 1080.35 310.007C1080.04 297.94 1076.59 286.164 1070.32 275.846C1064.06 265.528 1055.2 257.027 1044.64 251.186C1034.08 245.345 1022.17 242.367 1010.1 242.548C998.029 242.729 986.217 246.062 975.833 252.217C965.449 258.371 956.854 267.134 950.901 277.635C944.948 288.136 941.844 300.01 941.896 312.081C941.949 324.152 945.156 336 951.199 346.449C957.243 356.897 965.913 365.585 976.351 371.649C969.494 365.681 963.998 358.311 960.235 350.036C956.471 341.761 954.528 332.775 954.537 323.684Z" fill="white"/>
<path d="M1122.92 251.294C1126.18 251.294 1129.39 252.148 1132.22 253.769C1135.05 255.391 1137.4 257.725 1139.05 260.539C1139.13 259.803 1139.18 259.063 1139.18 258.323C1139.17 255.452 1138.5 252.622 1137.23 250.051C1135.95 247.48 1134.1 245.238 1131.81 243.499C1129.53 241.759 1126.88 240.569 1124.06 240.02C1121.24 239.471 1118.33 239.579 1115.56 240.334C1112.79 241.089 1110.24 242.472 1108.09 244.376C1105.94 246.279 1104.26 248.652 1103.17 251.31C1102.09 253.968 1101.63 256.84 1101.84 259.703C1102.04 262.566 1102.9 265.344 1104.35 267.821C1104.88 263.268 1107.06 259.068 1110.49 256.02C1113.91 252.973 1118.34 251.291 1122.92 251.294Z" fill="white"/>
<path d="M1341.71 168.963C1361.62 168.967 1380.71 176.879 1394.79 190.958C1408.87 205.038 1416.79 224.133 1416.79 244.044C1416.79 245.881 1416.79 247.717 1416.58 249.521C1425.12 238.858 1429.48 225.455 1428.87 211.81C1428.25 198.166 1422.7 185.211 1413.24 175.359C1403.78 165.508 1391.06 159.432 1377.45 158.264C1363.84 157.096 1350.27 160.915 1339.27 169.01C1340.08 168.978 1340.89 168.963 1341.71 168.963Z" fill="white"/>
<path d="M728.137 481.636C728.133 474.73 730.471 468.027 734.769 462.622C739.068 457.216 745.073 453.429 751.802 451.878C758.532 450.327 765.589 451.104 771.82 454.082C778.05 457.061 783.087 462.065 786.106 468.276C785.644 463.843 784.217 459.565 781.924 455.743C779.632 451.92 776.53 448.646 772.837 446.151C769.144 443.656 764.949 442 760.548 441.299C756.146 440.598 751.645 440.87 747.359 442.096C743.074 443.321 739.109 445.47 735.743 448.392C732.378 451.313 729.693 454.937 727.877 459.007C726.061 463.078 725.159 467.497 725.234 471.953C725.309 476.409 726.359 480.795 728.311 484.802C728.197 483.751 728.138 482.694 728.137 481.636Z" fill="#CBCBEA"/>
<path d="M934.592 425.646C942.791 425.638 950.901 427.344 958.401 430.657C965.9 433.969 972.624 438.814 978.14 444.88C973.195 434.075 964.708 425.283 954.085 419.959C943.461 414.634 931.339 413.097 919.723 415.6C908.107 418.104 897.694 424.499 890.207 433.727C882.721 442.955 878.609 454.463 878.554 466.345C882.403 454.515 889.898 444.206 899.964 436.896C910.03 429.585 922.151 425.647 934.592 425.646Z" fill="#CBCBEA"/>
<path d="M838.361 423.525C847.331 423.515 856.195 425.461 864.336 429.225C872.477 432.99 879.7 438.483 885.503 445.323C886.959 447.048 888.431 444.61 887.482 441.713C883.521 429.449 875.381 418.963 864.482 412.086C853.582 405.208 840.613 402.375 827.839 404.08C815.064 405.785 803.292 411.921 794.578 421.416C785.864 430.912 780.759 443.165 780.154 456.04C780.93 457.464 781.579 460.63 782.291 459.095C787.288 448.448 795.217 439.447 805.148 433.147C815.079 426.847 826.6 423.509 838.361 423.525Z" fill="#CBCBEA"/>
<path d="M1129.81 217.164C1129.81 195.677 1137.23 174.85 1150.8 158.194C1164.38 141.537 1183.28 130.071 1204.32 125.727C1225.37 121.383 1247.26 124.428 1266.32 134.349C1285.38 144.269 1300.44 160.458 1308.96 180.186C1304.47 163.051 1295.55 147.403 1283.08 134.824C1270.61 122.245 1255.04 113.181 1237.95 108.548C1220.85 103.914 1202.84 103.876 1185.72 108.437C1168.61 112.999 1153 121.997 1140.48 134.523C1127.96 147.049 1118.97 162.659 1114.41 179.775C1109.86 196.891 1109.9 214.906 1114.54 231.998C1119.18 249.091 1128.25 264.656 1140.84 277.12C1153.42 289.583 1169.07 298.503 1186.21 302.979C1169.45 295.75 1155.18 283.77 1145.16 268.519C1135.13 253.268 1129.8 235.415 1129.81 217.164Z" fill="white"/>
<path d="M74.5801 187.655C67.2508 224.381 79.3291 262.183 98.0718 278.789C88.3839 256.453 84.3789 210.166 105.797 177.698C98.3069 168.56 88.4584 161.645 77.3188 157.705C66.1793 153.765 54.1737 152.949 42.6035 155.346L44.0124 155.109C63.7049 151.484 78.965 165.683 74.5801 187.655Z" fill="#BCBCE2"/>
<path d="M200.633 139.217C220.836 139.222 240.652 144.753 257.935 155.213C275.218 165.673 289.31 180.663 298.685 198.559C308.059 216.454 312.358 236.574 311.116 256.738C309.874 276.902 303.139 296.341 291.64 312.952C304.046 298.989 312.875 282.221 317.367 264.091C321.859 245.961 321.88 227.012 317.428 208.872C312.977 190.732 304.186 173.945 291.811 159.954C279.437 145.963 263.849 135.187 246.388 128.553C228.928 121.919 210.118 119.626 191.575 121.87C173.032 124.114 155.312 130.829 139.938 141.436C124.564 152.044 111.997 166.227 103.317 182.765C94.637 199.304 90.1042 217.704 90.1084 236.382C90.1084 238.155 90.1084 239.912 90.2192 241.669C92.3258 213.821 104.87 187.795 125.343 168.799C145.815 149.803 172.706 139.238 200.633 139.217Z" fill="white"/>
<path d="M346.412 231.744C340.526 231.738 334.704 232.954 329.314 235.317C323.924 237.679 319.083 241.137 315.1 245.469C313.058 247.701 313.707 249.157 315.971 247.653C323.979 242.327 333.556 239.871 343.139 240.686C352.722 241.5 361.746 245.538 368.741 252.139C375.735 258.741 380.287 267.517 381.654 277.037C383.021 286.557 381.122 296.26 376.267 304.562C382.273 298.638 386.382 291.061 388.071 282.796C389.76 274.53 388.954 265.949 385.753 258.143C382.553 250.338 377.104 243.66 370.098 238.959C363.093 234.258 354.848 231.747 346.412 231.744Z" fill="white"/>
<path d="M325.833 252.877C324.836 267.709 316.936 295.396 303.829 307.743C320.15 300.588 327.242 278.695 339.415 268.944C350.987 259.699 362.859 257.341 365.614 262.517C356.496 248.682 335.236 246.45 325.833 252.877Z" fill="#BCBCE2"/>
<path d="M390.594 297.407C386.323 297.398 382.134 298.582 378.5 300.826C377.681 302.02 376.936 303.262 376.268 304.546C382.283 301.159 401.754 306.81 403.496 320.63C405.775 319.49 408.973 314.662 411.221 310.166C409.308 306.332 406.365 303.108 402.721 300.854C399.078 298.6 394.878 297.407 390.594 297.407Z" fill="white"/>
<path d="M1364.28 130.274C1352.26 130.249 1340.38 132.792 1329.42 137.734C1318.47 142.675 1308.69 149.901 1300.76 158.926C1309.22 175.144 1313.11 193.364 1311.99 211.626C1310.88 229.887 1304.8 247.499 1294.42 262.565C1294.48 262.64 1294.53 262.72 1294.58 262.803C1317.74 243.427 1325.77 208.442 1333.06 171.986C1339.4 140.437 1364.3 128.596 1390.05 134.263C1381.72 131.608 1373.03 130.263 1364.28 130.274Z" fill="#BCBCE2"/>
<path d="M378.531 307.475C387.681 312.366 395.295 332.803 393.174 345.277C394.102 336.267 395.523 327.315 397.432 318.461C394.994 311.147 386.462 308.092 378.531 307.475Z" fill="#BCBCE2"/>
<path d="M1079.91 280.817C1083.71 292.607 1086.23 304.771 1087.42 317.1C1094.82 294.368 1116.5 285.551 1136.14 281.831C1128.68 274.723 1122.26 266.919 1119.55 260.492C1115.58 263.744 1112.75 268.182 1111.48 273.156C1108.03 271.319 1085.67 271.652 1079.91 280.817Z" fill="#BCBCE2"/>
<path d="M944.264 347.002C932.439 343.836 913.791 354.394 908.235 364.557C909.723 374.53 905.29 394.634 895.127 408.533C905.417 398.544 909.153 386.371 916.055 371.934C922.703 357.956 936.697 347.002 944.264 347.002Z" fill="#BCBCE2"/>
<path d="M1349.81 299.924C1327.83 295.097 1304.85 298.533 1285.24 309.576C1265.63 320.619 1250.78 338.495 1243.52 359.793C1233.62 353.328 1222.36 349.247 1210.63 347.874C1198.89 346.5 1186.99 347.871 1175.87 351.878C1179.99 352.183 1184.08 352.78 1188.11 353.667C1209.99 358.416 1238.04 378.029 1250.34 407.489C1253.5 386.245 1259.84 369.006 1265.91 359.049C1277.03 340.95 1293.27 326.55 1312.56 317.667C1331.86 308.784 1353.35 305.816 1374.33 309.137C1366.64 304.907 1358.39 301.804 1349.81 299.924Z" fill="#CBCBEA"/>
<path d="M375.35 427.878C392.32 415.331 413.575 410.031 434.449 413.141C455.322 416.252 474.109 427.518 486.683 444.468C497.56 438.857 510.079 437.3 522 440.076C533.92 442.851 544.464 449.778 551.744 459.617L552.156 460.203C551.13 453.918 548.741 447.934 545.155 442.672C541.569 437.409 536.874 432.996 531.4 429.743C525.926 426.49 519.805 424.476 513.469 423.842C507.133 423.208 500.735 423.969 494.724 426.073C489.018 414.064 479.892 404.008 468.49 397.167C457.089 390.327 443.921 387.007 430.639 387.624C417.357 388.241 404.554 392.768 393.836 400.637C383.118 408.505 374.963 419.364 370.396 431.851C371.979 430.474 373.625 429.144 375.35 427.878Z" fill="#CBCBEA"/>
<path d="M1077.76 250.74C1072.86 250.739 1068.02 251.821 1063.58 253.909C1059.15 255.997 1055.23 259.039 1052.11 262.818C1056.87 266.001 1061.21 269.784 1065 274.073C1070.28 268.362 1077.39 264.681 1085.1 263.671C1092.81 262.662 1100.63 264.388 1107.2 268.549C1104.39 263.177 1100.15 258.677 1094.96 255.538C1089.77 252.399 1083.82 250.74 1077.76 250.74Z" fill="white"/>
<path d="M743.951 333.056C736.449 327.703 727.738 324.289 718.596 323.12C709.454 321.95 700.165 323.06 691.556 326.351C682.948 329.642 675.287 335.012 669.257 341.982C663.227 348.952 659.015 357.306 656.997 366.299C660.875 359.678 666.075 353.927 672.274 349.404C678.473 344.882 685.538 341.686 693.027 340.015C700.516 338.344 708.269 338.234 715.802 339.692C723.335 341.15 730.487 344.145 736.812 348.49C738.501 343.053 740.901 337.863 743.951 333.056Z" fill="white"/>
<path d="M568.144 317.558C555.661 317.544 543.605 322.1 534.251 330.365C535.793 334.956 536.89 339.684 537.528 344.485C544.358 339.149 552.428 335.63 560.985 334.256C569.542 332.882 578.308 333.697 586.465 336.626C594.622 339.554 601.905 344.501 607.634 351.005C613.362 357.508 617.351 365.357 619.227 373.818C619.385 372.235 619.464 370.557 619.464 368.879C619.464 355.268 614.057 342.214 604.433 332.59C594.808 322.965 581.755 317.558 568.144 317.558Z" fill="white"/>
<path d="M1360.18 423.508C1332.89 445.67 1297.99 447.823 1282.2 428.368C1266.42 408.913 1275.76 375.211 1303.05 353.081C1330.34 330.95 1365.25 328.766 1381.01 348.205C1396.78 367.644 1387.47 401.362 1360.18 423.508Z" fill="#F7F7FD"/>
<path d="M1172.12 468.228C1138.04 476.808 1105.46 464.081 1099.3 439.734C1093.15 415.388 1115.85 388.809 1149.96 380.213C1184.07 371.618 1216.62 384.361 1222.78 408.707C1228.94 433.054 1206.19 459.696 1172.12 468.228Z" fill="#F7F7FD"/>
<path d="M1227.3 245.69C1190.9 254.856 1155.55 238.662 1148.15 209.503C1140.76 180.344 1164.3 149.349 1200.65 140.136C1236.99 130.923 1272.4 147.18 1279.8 176.323C1287.19 205.466 1263.65 236.493 1227.3 245.69Z" fill="#F7F7FD"/>
<path d="M1025.3 355.836C1000.46 362.168 976.225 351.087 971.222 331.109C966.22 311.132 982.303 289.951 1007.11 283.619C1031.91 277.287 1056.18 288.368 1061.18 308.361C1066.19 328.355 1050.13 349.583 1025.3 355.836Z" fill="#F7F7FD"/>
<path d="M1350.62 345.514C1367.94 345.488 1384.78 351.162 1398.55 361.661C1389.65 347.852 1376.15 337.629 1360.45 332.793C1344.74 327.957 1327.83 328.817 1312.7 335.222C1297.57 341.627 1285.18 353.166 1277.72 367.807C1270.26 382.449 1268.2 399.253 1271.91 415.261C1274.24 396.024 1283.53 378.306 1298.03 365.454C1312.54 352.603 1331.24 345.509 1350.62 345.514Z" fill="white"/>
<path d="M1100.66 450.056C1100.68 434.74 1106.01 419.905 1115.73 408.073C1125.45 396.24 1138.98 388.143 1154 385.157C1169.02 382.171 1184.61 384.482 1198.12 391.697C1211.63 398.911 1222.22 410.583 1228.1 424.728C1227.37 415.176 1224.57 405.896 1219.91 397.527C1215.25 389.159 1208.83 381.902 1201.09 376.257C1193.35 370.611 1184.47 366.712 1175.08 364.828C1165.69 362.944 1156 363.119 1146.68 365.343C1137.36 367.566 1128.64 371.785 1121.11 377.707C1113.58 383.629 1107.42 391.114 1103.07 399.646C1098.71 408.177 1096.26 417.553 1095.87 427.125C1095.49 436.697 1097.19 446.238 1100.85 455.09C1100.73 453.364 1100.66 451.781 1100.66 450.056Z" fill="white"/>
<path d="M1006.02 283.318C1019.56 283.32 1032.64 288.223 1042.85 297.121C1053.06 306.019 1059.71 318.31 1061.56 331.726C1064.58 323.08 1064.72 313.69 1061.95 304.959C1059.19 296.229 1053.68 288.627 1046.23 283.291C1038.79 277.955 1029.82 275.172 1020.67 275.356C1011.51 275.541 1002.66 278.684 995.442 284.315C998.928 283.653 1002.47 283.32 1006.02 283.318Z" fill="white"/>
<path d="M1201.23 147.006C1210.29 146.998 1219.26 148.774 1227.63 152.232C1236 155.69 1243.61 160.764 1250.02 167.163C1256.43 173.561 1261.52 181.16 1264.99 189.525C1268.47 197.89 1270.26 206.857 1270.27 215.914C1270.27 217.613 1270.2 219.291 1270.08 220.948C1277.9 211.15 1281.89 198.845 1281.32 186.323C1280.74 173.8 1275.64 161.912 1266.96 152.87C1258.28 143.828 1246.61 138.247 1234.12 137.166C1221.63 136.084 1209.17 139.575 1199.06 146.99L1201.23 147.006Z" fill="white"/>
<path d="M278.819 404.291C297.705 404.312 315.812 411.824 329.166 425.179C342.521 438.533 350.033 456.64 350.054 475.526C350.054 477.489 350.054 479.452 349.816 481.383C356.813 466.395 357.854 449.308 352.728 433.581C347.601 417.855 336.691 404.664 322.205 396.678C307.719 388.693 290.74 386.51 274.705 390.572C258.67 394.633 244.778 404.636 235.84 418.554C248.226 409.236 263.32 404.227 278.819 404.291Z" fill="white"/>
<path d="M416.191 447.713C427.451 447.71 438.409 451.357 447.421 458.107C456.434 464.856 463.017 474.345 466.182 485.151C467.522 479.338 467.704 473.319 466.718 467.436C465.731 461.554 463.596 455.923 460.433 450.865C457.27 445.808 453.143 441.423 448.285 437.961C443.428 434.499 437.937 432.027 432.124 430.688C426.312 429.348 420.292 429.166 414.41 430.152C408.527 431.139 402.896 433.275 397.839 436.437C387.625 442.824 380.367 453.007 377.661 464.746C382.538 459.374 388.486 455.083 395.122 452.149C401.759 449.215 408.936 447.704 416.191 447.713Z" fill="white"/>
<path d="M1050.02 454.156C1061.9 454.131 1073.49 457.805 1083.19 464.667C1077.97 453.682 1068.79 445.08 1057.49 440.592C1046.19 436.104 1033.6 436.062 1022.27 440.474C1010.94 444.887 1001.7 453.428 996.413 464.378C991.124 475.327 990.178 487.874 993.765 499.493C996.561 486.651 1003.67 475.151 1013.9 466.904C1024.13 458.657 1036.88 454.158 1050.02 454.156Z" fill="white"/>
<path d="M281.652 263.926C267.262 292.689 224.822 300.62 186.846 281.64C148.87 262.66 129.731 223.94 144.105 195.177C158.479 166.413 200.919 158.467 238.911 177.447C276.903 196.427 296.025 235.147 281.652 263.926Z" fill="#F7F7FD"/>
<path d="M505.172 361.55C495.674 380.672 470.346 387.416 448.723 376.62C427.099 365.824 417.332 341.541 426.893 322.418C436.454 303.295 461.719 296.552 483.343 307.348C504.967 318.144 514.718 342.364 505.172 361.55Z" fill="#F7F7FD"/>
<path d="M860.887 342.285C869.008 359.793 854.555 383.76 828.61 395.79C802.664 407.821 775.041 403.405 766.873 385.897C758.705 368.389 773.205 344.422 799.134 332.375C825.064 320.329 852.703 324.777 860.887 342.285Z" fill="#F7F7FD"/>
<path d="M225.518 167.316C226.547 167.316 227.592 167.316 228.684 167.316C217.013 158.473 202.721 153.783 188.079 153.993C173.437 154.202 159.285 159.299 147.872 168.473C136.459 177.647 128.438 190.372 125.086 204.627C121.733 218.881 123.24 233.847 129.367 247.147C133.574 224.718 145.486 204.465 163.043 189.888C180.6 175.311 202.699 167.327 225.518 167.316Z" fill="white"/>
<path d="M477.611 305.797H477.944C470.854 300.806 462.246 298.444 453.602 299.117C444.958 299.79 436.82 303.456 430.588 309.483C424.356 315.511 420.421 323.523 419.46 332.14C418.499 340.756 420.573 349.438 425.325 356.69C425.676 343.062 431.341 330.111 441.11 320.602C450.879 311.093 463.979 305.78 477.611 305.797Z" fill="white"/>
<path d="M775.737 350.089C785.399 337.974 799.406 330.107 814.779 328.161C830.153 326.216 845.678 330.346 858.053 339.673C852.668 328.661 843.42 320.014 832.072 315.379C820.724 310.744 808.067 310.444 796.512 314.537C784.957 318.63 775.311 326.829 769.411 337.574C763.51 348.319 761.767 360.858 764.514 372.805C766.572 364.512 770.4 356.762 775.737 350.089Z" fill="white"/>
<path d="M646.96 442.283C637.462 457.243 596.652 457.243 590.621 433.054C579.54 447.412 557.378 455.216 544.049 448.441C547.202 451.749 549.8 455.544 551.743 459.68C575.488 448.267 602.747 469.321 594.025 493.303C610.915 472.835 651.598 483.505 664.832 500.918H667.998C671.734 486.671 680.409 478.756 690.034 473.579C674.805 476.761 648.876 473.737 646.96 442.283Z" fill="#CBCBEA"/>
<path d="M-9.7627 212.825V314.834C-9.7627 290.82 33.8806 280.514 43.3153 282.24C-3.85811 269.971 -9.7627 231.695 -9.7627 212.825Z" fill="#BCBCE2"/>
<path d="M111.21 472.914C109.2 473.832 106.778 474.687 104.688 475.479C64.3059 490.85 21.8973 481.051 -9.7627 453.839V474.418C3.10841 487.23 19.4 496.06 37.1606 499.85C54.9213 503.64 73.3981 502.23 90.3779 495.788C96.0869 493.64 101.578 490.953 106.778 487.763C114.783 497.973 125.844 505.356 138.345 508.83C150.845 512.305 164.13 511.69 176.256 507.075C179.417 505.872 182.477 504.416 185.405 502.722C171.476 505.688 156.979 504.437 143.764 499.128C130.549 493.819 119.216 484.693 111.21 472.914Z" fill="#CBCBEA"/>
<path d="M1449.76 407.077C1444.33 417.926 1436.06 427.108 1425.84 433.655C1421.79 444.467 1364.11 544.465 1277.61 467.452C1266.8 495.155 1236.33 530.123 1163.34 492.274C1161.37 496.69 1137.6 505.603 1119.39 511.935H1449.76V407.077Z" fill="url(#paint3_linear)"/>
<path d="M1449.76 393.21C1445.01 406.396 1435.93 417.082 1423.37 422.163C1419.02 437.324 1410.69 451.048 1399.26 461.918C1387.83 472.788 1373.7 480.41 1358.34 483.998C1342.98 487.586 1326.94 487.009 1311.87 482.328C1296.81 477.647 1283.26 469.031 1272.64 457.369C1269.72 470.273 1263.03 482.017 1253.41 491.103C1243.8 500.189 1231.69 506.207 1218.65 508.389C1221.1 508.694 1223.58 508.848 1226.05 508.848C1237.87 508.85 1249.45 505.453 1259.39 499.062C1269.33 492.672 1277.23 483.557 1282.14 472.803C1291.53 485.02 1304.2 494.326 1318.66 499.645C1333.13 504.964 1348.8 506.078 1363.87 502.858C1378.95 499.639 1392.8 492.217 1403.83 481.452C1414.85 470.687 1422.61 457.019 1426.19 442.03C1437.27 435.476 1445.01 424.775 1449.76 412.048V393.21Z" fill="#CBCBEA"/>
</g>
<path d="M689.39 456.713C690.644 472.352 689.482 488.09 685.946 503.375C682.35 518.303 674.094 522.124 672.459 534.283C671.264 543.111 674.574 546.544 677.783 550.631C680.296 553.778 680.46 560.991 677.159 568.153C672.613 577.993 664.899 583.704 660.689 590.203C656.479 596.701 655.202 606.346 656.602 612.446C658.002 618.545 661.21 622.203 664.776 623.47C668.076 624.655 669.159 631.082 665.726 635.874C657.256 647.696 639.529 650.056 637.496 668.171C644.239 697.965 705.952 704.79 724.527 701.377C743.102 697.965 773.192 667.967 786.792 649.075C779.108 643.557 772.314 634.771 770.74 628.926C770.079 626.799 770.108 624.517 770.821 622.407C771.535 620.296 772.898 618.466 774.715 617.176C778.945 614.223 780.845 609.278 780.845 602.014C780.763 592.644 775.052 585.666 769.606 578.974C763.7 571.822 758.479 567.162 759.256 553.195C760.451 531.739 762.209 517.649 757.335 509.261C753.105 502.027 746.443 495.273 749.396 469.709C744.441 462.353 700.68 439.977 689.39 456.713Z" fill="#DEDEF8"/>
<path d="M786.781 649.128C779.097 643.61 772.303 634.824 770.729 628.979C770.068 626.852 770.097 624.57 770.811 622.459C771.524 620.349 772.887 618.519 774.704 617.229C778.934 614.276 780.834 609.331 780.834 602.067C780.752 592.697 775.041 585.719 769.595 579.027C763.689 571.874 758.468 567.215 759.245 553.248C760.44 531.792 762.198 517.702 757.324 509.314C753.094 502.08 746.432 495.326 749.385 469.762C747.178 466.411 736.961 459.974 725.405 455.458C723.098 459.412 721.542 463.76 720.817 468.281C716.485 486.059 709.405 505.329 717.671 523.117C725.936 540.906 733.937 558.745 728.685 575.481C723.576 591.829 709.405 615.492 710.978 634.262C712.552 653.031 718.457 669.338 727.51 680.699C730.197 688.873 741.324 688.526 752.031 685.716C765.019 674.936 776.684 662.654 786.781 649.128Z" fill="#D4D4F1"/>
<path d="M733.507 489.737C738.279 481.992 746.208 496.808 753.656 503.429C750.203 497.298 747.137 488.685 749.314 469.793C746.831 466.023 734.243 458.37 721.012 453.977C717.742 453.353 714.493 452.669 711.285 451.933C708.634 451.294 705.934 450.88 703.213 450.697C697.277 450.768 692.27 452.485 689.389 456.766C689.979 464.546 690.003 472.359 689.46 480.143C690.176 490.687 688.05 503.163 690.993 499.934C694.416 496.174 706.166 475.259 713.216 489.717C720.266 504.174 728.378 498.003 733.507 489.737Z" fill="#CBCBEA"/>
<path d="M677.783 550.632C677.917 550.794 678.04 550.965 678.151 551.143C676.68 542.285 676.659 538.004 681.543 527.94C685.937 518.877 687.99 502.703 688.348 490.636C687.694 495.295 686.856 499.566 685.947 503.377C682.35 518.305 674.095 522.126 672.46 534.285C671.265 543.112 674.626 546.586 677.783 550.632Z" fill="white"/>
<path d="M786.341 383.139C791.053 379.751 794.57 374.958 796.387 369.446C798.204 363.934 798.227 357.989 796.452 352.463C794.678 346.938 791.197 342.117 786.511 338.694C781.825 335.271 776.175 333.421 770.371 333.411C767.02 333.411 761.564 334.065 757.457 336.323C752.348 329.12 709.292 330.356 696.377 333.339C691.013 330.356 677.853 334.116 674.297 342.606C669.107 339.916 663.122 339.182 657.435 340.54C651.749 341.898 646.741 345.257 643.327 350.003C639.913 354.749 638.32 360.565 638.84 366.388C639.36 372.211 641.958 377.653 646.159 381.718C640.579 382.775 635.594 385.875 632.178 390.411C628.762 394.948 627.161 400.595 627.687 406.25C628.213 411.904 630.829 417.159 635.024 420.987C639.218 424.815 644.69 426.942 650.368 426.951C651.349 426.953 652.329 426.888 653.301 426.757C653.675 428.767 654.742 430.583 656.315 431.889C657.888 433.195 659.869 433.91 661.914 433.909C662.321 433.909 662.728 433.878 663.13 433.817C661.043 438.106 660.353 442.941 661.157 447.643C661.96 452.344 664.217 456.676 667.61 460.028C671.003 463.381 675.362 465.585 680.073 466.332C684.784 467.079 689.61 466.331 693.874 464.193C695.094 467.881 697.234 471.197 700.094 473.827C702.953 476.457 706.436 478.313 710.213 479.221C713.991 480.128 717.937 480.057 721.679 479.013C725.421 477.969 728.834 475.987 731.596 473.256C734.804 475.774 738.771 477.129 742.85 477.099C746.928 477.068 750.874 475.654 754.044 473.087C757.213 470.521 759.417 466.955 760.295 462.972C761.173 458.99 760.673 454.827 758.877 451.166C760.08 451.466 761.315 451.617 762.555 451.615C765.146 451.613 767.695 450.96 769.967 449.715C772.239 448.47 774.162 446.674 775.558 444.491C776.954 442.308 777.778 439.81 777.956 437.225C778.133 434.64 777.658 432.052 776.573 429.699C777.723 429.872 778.884 429.957 780.047 429.955C785.824 429.962 791.407 427.871 795.758 424.07C800.109 420.269 802.932 415.018 803.701 409.292C804.471 403.566 803.135 397.756 799.941 392.942C796.748 388.127 791.915 384.636 786.341 383.118V383.139Z" fill="#DEDEF8"/>
<path d="M674.881 453.158C678.968 461.251 687.734 464.868 700.741 459.718C699.494 461.945 701.998 475.105 713.748 476.199C723.24 477.077 728.696 472.112 730.974 467.054C734.846 471.274 744.522 471.274 749.089 466.523C753.657 461.772 757.008 456.142 751.899 446.65C753.136 457.378 743.991 464.939 732.21 459.841C727.102 455.263 722.361 444.361 722.361 444.361C719.725 450.165 708.118 451.748 703.019 445.066C703.367 452.453 686.314 462.477 674.881 453.158Z" fill="#CBCBEA"/>
<path d="M759.03 337.56C763.617 334.883 778.443 333.35 785.033 339.471C792.062 345.969 792.297 356.421 790.632 363.297C790.887 353.08 782.734 345.458 776.869 343.292C771.005 341.126 761.359 344.937 759.03 337.56Z" fill="#CBCBEA"/>
<path d="M700.577 462.334C700.579 461.459 700.634 460.586 700.74 459.718C698.209 461.127 695.425 462.023 692.547 462.356C689.669 462.689 686.754 462.452 683.968 461.659C681.182 460.865 678.58 459.53 676.31 457.731C674.039 455.931 672.146 453.702 670.737 451.171C669.328 448.64 668.431 445.856 668.098 442.978C667.766 440.101 668.003 437.186 668.796 434.4C669.59 431.613 670.925 429.011 672.724 426.741C674.523 424.47 676.752 422.577 679.284 421.168C677.423 421.529 675.614 422.119 673.899 422.925C673.327 423.201 672.775 423.487 672.234 423.794L672.131 423.855C671.907 423.988 671.682 424.121 671.467 424.264L671.294 424.366C667.871 426.56 665.082 429.61 663.201 433.214C661.523 432.862 659.98 432.038 658.754 430.84C657.527 429.642 656.667 428.12 656.274 426.45C661.138 425.183 670.068 420.228 671.488 413.577C669.639 416.115 667.228 418.191 664.442 419.642C661.657 421.092 658.573 421.878 655.433 421.937C652.294 421.996 649.183 421.327 646.345 419.982C643.507 418.638 641.019 416.654 639.076 414.187C637.133 411.719 635.788 408.835 635.147 405.761C634.506 402.687 634.585 399.506 635.379 396.467C636.173 393.429 637.66 390.616 639.724 388.248C641.787 385.881 644.371 384.024 647.273 382.822C650.096 385.243 653.432 386.99 657.03 387.931C652.089 384.964 648.34 380.363 646.433 374.924C644.526 369.485 644.58 363.551 646.587 358.148C648.594 352.745 652.426 348.214 657.422 345.338C662.417 342.463 668.26 341.424 673.94 342.402C668.736 339.811 662.778 339.167 657.141 340.587C651.504 342.006 646.561 345.396 643.205 350.142C639.85 354.889 638.303 360.679 638.845 366.467C639.386 372.254 641.981 377.657 646.159 381.698C640.579 382.755 635.594 385.855 632.178 390.391C628.762 394.928 627.161 400.575 627.687 406.229C628.213 411.884 630.829 417.139 635.024 420.967C639.218 424.795 644.69 426.922 650.368 426.931C651.349 426.933 652.329 426.868 653.301 426.736C653.675 428.747 654.742 430.563 656.315 431.869C657.888 433.175 659.869 433.89 661.914 433.889C662.321 433.889 662.728 433.858 663.13 433.797C661.036 438.086 660.34 442.925 661.14 447.631C661.941 452.337 664.197 456.674 667.592 460.03C670.986 463.386 675.348 465.593 680.063 466.34C684.778 467.087 689.608 466.336 693.874 464.193C694.941 467.451 696.726 470.428 699.098 472.904C701.469 475.379 704.366 477.291 707.575 478.498C705.358 476.431 703.592 473.928 702.388 471.147C701.183 468.365 700.567 465.365 700.577 462.334Z" fill="white"/>
<path d="M791.449 385.203C794.457 388.912 796.353 393.397 796.917 398.139C797.481 402.881 796.689 407.686 794.634 411.997C792.578 416.307 789.344 419.947 785.304 422.494C781.265 425.042 776.587 426.392 771.811 426.389C769.621 426.389 767.441 426.107 765.323 425.551C768.105 427.657 771.307 429.138 774.713 429.894C774.539 437.884 767.499 448.285 758.191 449.307C756.803 447.051 754.946 445.12 752.745 443.646C754.872 446.527 756.228 449.903 756.684 453.455C757.14 457.006 756.681 460.616 755.35 463.94C754.019 467.264 751.862 470.193 749.081 472.45C746.301 474.706 742.99 476.215 739.463 476.832C740.528 477.029 741.609 477.129 742.692 477.129C745.75 477.13 748.758 476.353 751.432 474.87C754.107 473.388 756.36 471.248 757.978 468.653C759.596 466.058 760.527 463.094 760.682 460.04C760.838 456.986 760.212 453.942 758.866 451.197C760.069 451.497 761.304 451.648 762.544 451.647C765.135 451.645 767.684 450.991 769.956 449.746C772.228 448.501 774.151 446.705 775.547 444.522C776.943 442.339 777.767 439.841 777.945 437.256C778.122 434.671 777.647 432.083 776.562 429.73C777.712 429.903 778.873 429.989 780.036 429.986C785.335 429.987 790.483 428.222 794.667 424.971C798.851 421.719 801.832 417.167 803.14 412.032C804.448 406.897 804.007 401.472 801.888 396.616C799.769 391.759 796.092 387.747 791.439 385.213L791.449 385.203Z" fill="white"/>
<path d="M793.145 357.555C793.142 365.462 790.021 373.048 784.457 378.667C778.894 384.286 771.339 387.483 763.433 387.563C771.882 391.466 782.846 385.847 786.34 383.129C789.894 380.588 792.79 377.234 794.786 373.347C796.782 369.46 797.82 365.153 797.814 360.783C797.808 356.414 796.758 352.109 794.751 348.228C792.745 344.346 789.84 341 786.279 338.469C790.722 343.836 793.15 350.587 793.145 357.555Z" fill="white"/>
<path d="M673.225 405.484C673.225 413.77 669.251 422.22 659.309 425.531C659.585 426.746 663.498 429.505 665.726 429.74C667.34 426.818 675.483 420.596 683.391 420.289C677.69 419.983 672.408 412.994 673.225 405.484Z" fill="#CBCBEA"/>
<path d="M647.274 382.823C650.084 384.733 657.726 389.699 665.481 390.067C661.721 392.008 655.172 391.037 650.574 391.16C642.298 391.374 640.357 403.656 642.574 409.214C634.328 397.781 635.728 387.461 647.274 382.823Z" fill="#CBCBEA"/>
<path d="M763.432 387.562C769.777 390.627 780.219 388.584 786.339 383.128C792.296 383.199 799.264 392.426 797.486 403.287C795.708 414.148 789.384 421.106 779.657 424.835C789.057 420.135 791.918 412.298 790.998 405.555C788.73 389.36 767.999 396.819 763.432 387.562Z" fill="#CBCBEA"/>
<path d="M761.697 421.709C763.393 425.479 769.615 429.239 774.714 429.883C775.112 434.062 771.475 441.122 767.95 444.085C770.943 440.182 769.646 435.625 767.173 432.366C764.874 429.362 762.351 426 761.697 421.709Z" fill="#CBCBEA"/>
<path d="M647.916 359.7C644.749 368.753 646.333 378.939 655.16 384.365C658.553 386.858 669.414 387.992 675.748 381.647C661.495 383.69 644.749 374.188 647.916 359.7Z" fill="#CBCBEA"/>
<path d="M678.969 390.783C679.255 395.289 679.04 401.603 675.321 407.182C671.469 412.965 668.169 415.714 661.231 420.117C666.79 413.118 667.914 408.051 668.619 402.002C669.569 393.756 673.216 391.355 678.969 390.783Z" fill="#FFD18C"/>
<path d="M685.589 339.584C684.281 343.334 677.731 348.78 670.263 345.582C671.008 349.883 677.558 353.439 684.301 351.007C680.562 354.001 679.06 359.61 678.12 366.16C677.006 374.017 671.386 383.008 664.091 383.938C669.517 386.932 675.811 384.592 678.682 382.252C683.739 378.165 689.165 374.773 693.282 375.519C688.419 378.512 684.72 388.801 685.047 397.036C685.609 411.259 692.199 421.762 701.139 432.409C712.746 446.253 722.095 463.286 716.302 484.242C724.721 474.32 732.006 457.114 731.832 446.437C731.638 435.025 726.969 430.907 727.337 420.986C730.892 407.703 743.245 401.716 743.061 388.055C746.055 395.545 743.245 407.325 747.148 415.377C746.607 408.051 750.08 398.978 754.065 391.427C759.307 381.506 761.503 373.976 759.491 367.1C757.948 361.807 750.591 355.411 747.935 353C753.483 354.563 761.698 354.808 765.192 352.397C760.002 352.632 753.248 348.167 753.483 340.678C751.439 338.389 697.247 331.86 685.589 339.584Z" fill="url(#paint4_radial)"/>
<path d="M761.697 351.906L762.157 352.039L761.697 351.906Z" fill="#EC8D00"/>
<path d="M762.844 352.192L763.131 352.253L762.844 352.192Z" fill="#EC8D00"/>
<path d="M761.227 351.742L761.462 351.824L761.227 351.742Z" fill="#EC8D00"/>
<path d="M762.333 352.079L762.641 352.151L762.333 352.079Z" fill="#EC8D00"/>
<path d="M765.202 352.396C765.059 352.396 764.906 352.396 764.743 352.396C764.906 352.406 765.059 352.396 765.202 352.396Z" fill="#EC8D00"/>
<path d="M759.859 351.15L760.023 351.231L759.859 351.15Z" fill="#EC8D00"/>
<path d="M760.757 351.558L760.973 351.65L760.757 351.558Z" fill="#EC8D00"/>
<path d="M720.82 471.214C721.171 470.911 721.409 470.496 721.494 470.039C728.248 462.683 730.925 449.155 728.932 442.902C725.785 432.991 718.286 415.141 733.888 390.232C732.089 394.88 729.239 404.934 730.138 408.388C735.543 401.185 742.644 391.355 739.589 385.133C735.992 377.777 732.089 374.027 732.692 367.12C735.477 372.67 739.064 377.779 743.339 382.282C746.189 385.133 747.988 397.128 747.242 400.735C749.214 390.058 759.431 381.506 758.195 372.106C756.958 362.706 747.088 357.25 747.242 351.252C751.441 352.601 755.875 352.897 758.726 351.549C754.639 349.321 752.994 346.277 753.617 343.62C753.617 342.721 753.382 341.75 753.413 340.729C752.269 339.462 735.083 336.877 717.989 336.161C717.251 338.612 716.651 341.102 716.191 343.62C703.031 364.852 702.551 385.572 709.315 408.531C715.077 427.974 725.428 451.444 720.82 471.214Z" fill="#F1895D"/>
<path d="M757.488 349.628L757.551 349.68L757.488 349.628Z" fill="#EC8D00"/>
<path d="M760.299 351.365L760.494 351.447L760.299 351.365Z" fill="#EC8D00"/>
<path d="M759.43 350.936L759.532 350.987L759.43 350.936Z" fill="#EC8D00"/>
<path d="M704.586 344.672C696.115 346.327 693.776 351.589 692.12 356.452C690.823 360.274 689.587 366.486 686.47 369.99C690.271 366.578 695.666 365.801 698.353 366.486C698.639 376.417 703.462 381.189 711.891 387.421C710.163 384.81 709.146 381.792 708.94 378.668C708.734 375.543 709.346 372.418 710.716 369.602C713.25 364.729 717.929 364.34 719.912 362.399C716.601 371.349 718.164 380.606 726.635 382.752C722.834 376.325 723.712 367.559 730.139 361.03C735.789 360.008 744.75 362.052 746.885 367.753C746.793 360.938 743.289 358.108 740.173 355.38C737.056 352.652 735.789 346.521 738.609 343.793C735.064 341.453 714.711 334.056 704.586 344.672Z" fill="#FFD18C"/>
<path d="M709.486 344.304C706.942 349.413 700.055 349.832 698.778 356.095C703.887 350.292 708.996 354.052 712.745 351.743C712.112 356.269 706.125 357.638 707.483 361.96C707.759 357.607 719.918 356.514 720.766 350.353C725.486 349.985 730.748 354.614 733.65 353.336C730.115 351.293 729.114 347.206 730.84 345.091C724.087 345.479 713.021 341.454 709.486 344.304Z" fill="white"/>
<path d="M740.13 355.38C738.535 353.868 737.483 351.871 737.137 349.699C734.961 354.808 741.949 357.597 743.645 362.154C740.795 358.251 731.783 356.596 728.186 358.701C728.186 359.896 727.584 361.102 725.785 363.953C723.538 367.508 720.83 372.954 723.384 379.105C718.276 376.101 717.836 368.152 720.084 365.454C722.025 363.115 724.171 359.896 722.781 355.237C723.088 359.743 718.878 361.368 714.986 362.594C706.413 365.23 704.625 373.393 707.026 380.3C704.778 377.746 701.325 372.198 700.273 368.142C699.22 364.085 699.976 358.946 701.775 357.189C700.862 357.524 700.028 358.043 699.325 358.715C698.622 359.386 698.064 360.195 697.688 361.092C696.237 364.157 694.837 364.392 691.833 363.942C692.804 360.581 693.315 354.185 695.603 349.526C694.005 351.59 692.81 353.937 692.078 356.443C690.791 360.213 689.575 366.313 686.541 369.848C690.331 366.548 695.583 365.761 698.28 366.466C698.566 376.397 703.389 381.169 711.818 387.401C710.09 384.79 709.073 381.772 708.867 378.648C708.661 375.523 709.273 372.398 710.643 369.582C713.177 364.709 717.857 364.32 719.839 362.379C716.528 371.329 718.092 380.586 726.562 382.732C722.761 376.305 723.64 367.539 730.066 361.01C735.717 359.988 744.677 362.032 746.813 367.733C746.751 360.938 743.247 358.108 740.13 355.38Z" fill="#FFE3C9"/>
<path d="M705.524 392.162C701.171 398.609 700.129 409.869 706.423 419.473C712.717 429.078 717.079 431.029 716.926 440.776C718.428 429.823 714.351 424.296 712.584 421.425C710.183 417.522 711.082 413.772 713.033 409.164C714.985 404.556 717.978 393.562 712.727 389.209C716.027 398.405 707.782 405.864 708.64 414.753C706.3 411.514 702.673 400.561 705.524 392.162Z" fill="#FFD18C"/>
<path d="M721.493 470.019C721.718 463.837 720.686 459.239 713.176 446.028C705.667 432.817 690.698 415.571 688.869 403.269C687.194 391.795 691.577 380.454 696.829 375.682C691.577 371.595 678.519 380.484 672.971 381.986C678.969 378.686 681.973 366.384 682.872 360.826C683.587 356.412 684.67 352.274 689.319 348.831C687.071 349.853 681.523 350.772 675.515 348.831C679.316 348.964 682.872 344.918 684.077 342.149C682.441 344.125 680.213 345.522 677.721 346.133C675.23 346.744 672.608 346.536 670.243 345.541C670.989 349.842 677.538 353.398 684.282 350.966C680.542 353.96 679.04 359.569 678.1 366.119C676.986 373.976 671.367 382.967 664.072 383.897C669.497 386.89 675.791 384.551 678.662 382.211C683.72 378.124 689.145 374.732 693.263 375.478C688.399 378.471 684.701 388.76 685.028 396.995C685.589 411.218 692.18 421.721 701.12 432.368C712.727 446.212 722.076 463.245 716.282 484.2C718.786 481.258 720.604 475.087 721.493 470.019Z" fill="#FFD18C"/>
<path d="M675.321 407.182C679.04 401.603 679.255 395.289 678.969 390.783C675.597 393.47 674.831 396.341 672.91 402.482C670.989 408.623 668.496 415.509 661.231 420.127C668.138 415.714 671.469 412.975 675.321 407.182Z" fill="#F1895D"/>
<path d="M703.43 309.053C699.394 310.289 690.811 312.731 688.625 318.637C687.082 322.805 685.233 329.436 684.456 331.603C683.68 333.769 684.967 335.904 687.573 336.711C696.768 339.49 703.307 340.4 719.379 340.4C735.451 340.4 742.695 339.49 751.87 336.711C754.466 335.925 755.753 333.799 754.936 331.603C754.118 329.406 751.758 321.498 750.552 318.157C748.509 312.598 740.008 310.279 735.962 309.043C727.41 308.593 711.287 309.053 703.43 309.053Z" fill="#817FED"/>
<path d="M736.002 309.053C727.41 308.593 711.287 309.053 703.43 309.053C699.741 310.177 692.262 312.323 689.33 317.227C694.51 319.168 709.58 320.088 719.89 320.088C731.2 320.088 748.386 319.168 749.959 316.89C747.17 312.231 739.711 310.187 736.002 309.053Z" fill="#A7C9FB"/>
<path d="M724.864 319.996C733.038 319.822 742.428 319.24 747.107 318.106C742.172 318.77 735.868 317.932 734.387 315.592C732.732 312.956 734.652 310.198 737.452 309.462L736.011 309.023C729.881 308.696 720.001 308.828 711.96 308.941C711.326 309.472 711.081 309.963 711.623 310.402C717.753 310.473 727.378 311.618 728.103 314.642C728.869 317.922 727.357 319.475 724.864 319.996Z" fill="#94B6EA"/>
<path d="M703.612 297.16C702.692 300.552 702.079 305.763 703.009 309.012C703.571 311.249 734.131 312.465 737.125 309.38C738.055 306.141 737.033 300.552 736.103 297.119C729.728 292.981 712.583 291.285 703.612 297.16Z" fill="#817FED"/>
<path d="M736.103 297.159C729.728 292.981 712.603 291.284 703.612 297.159C703.459 297.721 703.316 298.334 703.183 298.988C707.577 298.365 713.523 299.857 713.942 303.372C714.412 307.285 713.942 309.645 710.019 309.798C713.625 310.585 721.472 310.585 725.232 310.115C719.899 310.115 720.839 306.508 720.685 304.148C720.532 301.788 722.882 300.541 726.959 300.388C731.036 300.235 734.019 299.724 734.019 302.902C734.019 305.579 735.797 310.054 737.299 308.613C737.902 305.313 736.951 300.296 736.103 297.159Z" fill="#7270DB"/>
<path d="M668.158 212.151C671.285 224.361 672.858 236.254 662.61 244.295C655.009 250.262 646.314 256.208 640.704 260.387C633.103 266.058 629.373 272.474 627.677 282.661C625.634 294.922 622.047 320.373 621.547 336.149C621.393 341.166 627.616 338.489 628.924 334.105C630.65 328.302 633.154 320.935 635.504 314.693C637.803 308.562 641.91 304.588 648.684 301.41C659.662 296.294 671.046 292.097 682.718 288.863C688.848 287.3 696.532 285.849 699.423 291.795C700.823 294.656 704.205 293.839 702.162 288.73C700.118 283.622 674.401 222.379 671.264 210.619C668.128 198.858 666.615 206.092 668.158 212.151Z" fill="#A7C9FB"/>
<path d="M771.21 212.152C768.083 224.361 766.52 236.254 776.768 244.295C784.37 250.262 793.054 256.209 798.674 260.388C806.276 266.058 809.995 272.475 811.691 282.661C813.734 294.922 817.321 320.374 817.821 336.149C817.974 341.166 811.752 338.489 810.454 334.106C808.728 328.302 806.214 320.936 803.864 314.693C801.576 308.562 797.458 304.588 790.684 301.41C779.706 296.293 768.322 292.096 756.65 288.863C750.519 287.3 743.367 285.86 740.036 291.826C738.105 295.086 735.163 293.87 737.206 288.71C739.25 283.55 764.967 222.359 768.104 210.599C771.24 198.838 772.712 206.093 771.21 212.152Z" fill="#94B6EA"/>
<path d="M768.627 253.123C770.619 248.658 773.541 245.031 776.933 244.459L776.729 244.295C766.512 236.254 768.044 224.361 771.171 212.151C772.714 206.093 771.171 198.756 768.106 210.517C765.04 222.277 739.242 283.448 737.208 288.628C735.175 293.808 738.108 295.004 740.039 291.745C743.339 285.778 750.542 287.218 756.652 288.781C760.657 289.803 765.674 291.397 770.956 293.257C763.273 286.881 761.556 279.841 761.996 274.957C762.496 268.96 765.756 259.682 768.627 253.123Z" fill="#77A1DF"/>
<path d="M702.215 288.628C700.243 283.601 675.966 225.873 671.665 211.691C670.438 211.239 669.172 210.897 667.884 210.669C667.976 211.17 668.078 211.691 668.201 212.161C671.133 223.615 672.145 235.038 664.421 242.762C668.967 239.891 674.791 246.389 676.957 253.684C679.736 262.982 681.208 270.758 680.574 277.031C680.247 280.29 676.15 283.029 670.357 285.389C664.564 287.749 650.494 293.971 645.478 296.475C639 299.693 634.525 312.976 633.758 319.637C634.361 317.941 634.974 316.266 635.567 314.662C637.866 308.531 641.973 304.557 648.747 301.379C659.725 296.263 671.109 292.066 682.781 288.832C688.912 287.269 696.595 285.818 699.486 291.765C700.835 294.585 704.258 293.798 702.215 288.628Z" fill="#94B6EA"/>
<path d="M719.745 84.4138C700.526 84.4138 683.044 81.9105 666.461 84.6181C660.331 99.9441 656.632 117.712 656.632 138.382C656.632 176.452 667.739 227.201 700.25 293.42C700.811 294.7 701.696 295.813 702.817 296.648C703.939 297.483 705.258 298.011 706.646 298.181C715.336 299.183 724.113 299.183 732.803 298.181C734.189 298.01 735.507 297.482 736.627 296.647C737.746 295.812 738.629 294.7 739.188 293.42C771.7 227.201 782.806 176.452 782.806 138.382C782.806 117.702 779.302 99.9237 773.498 84.5262C757.069 84.7305 739.148 84.4138 719.745 84.4138Z" fill="#E1E7F7"/>
<path d="M719.746 89.7475C737.794 89.8253 755.804 88.076 773.5 84.5264C763.62 58.3087 747.078 38.9877 729.861 23.9784C724.17 18.788 717.601 18.4815 711.286 24.2134C694.039 39.2227 676.844 58.462 666.453 84.6184C684.001 88.1088 701.855 89.8271 719.746 89.7475Z" fill="#B3D1FF"/>
<path d="M773.611 84.5269C757.366 84.7313 740.016 84.4248 720.604 84.4146V298.979C724.718 298.96 728.829 298.711 732.915 298.233C734.295 298.062 735.606 297.532 736.717 296.697C737.829 295.861 738.702 294.749 739.25 293.472C771.762 227.202 782.929 176.452 782.929 138.383C782.929 117.703 779.415 99.9245 773.611 84.5269Z" fill="#CED5E9"/>
<path d="M720.604 89.7471C738.404 89.8009 756.164 88.0516 773.611 84.526C763.731 58.3083 747.25 38.9873 730.034 23.978C727.528 21.4768 724.144 20.0541 720.604 20.0137V89.7471Z" fill="#8FB4EC"/>
<path style="mix-blend-mode:multiply" d="M692.924 158.327C695.805 166.797 705.021 175.962 718.61 180.805C731.893 185.484 735.816 183.87 739.852 190.644C742.723 195.477 744.184 202.384 743.387 210.323C741.119 233.046 736.317 263.33 733.548 280.24C732.833 284.582 736.501 282.641 737.839 279.739C751.97 248.893 767.418 203.998 771.689 165.847C774.755 138.587 777.493 104.788 762.678 75.75C753.737 58.2272 740.332 41.011 728.531 31.3148C725.364 28.7093 724.904 30.2215 726.764 32.8269C743.214 56.1729 753.302 83.3994 756.036 111.827C756.69 118.908 753.278 120.492 748.465 117.386C736.348 109.559 721.962 107.536 707.831 113.85C707.422 121.473 697.9 160.064 692.924 158.327Z" fill="url(#paint5_linear)"/>
<g style="mix-blend-mode:multiply">
<path d="M754.137 143.031C754.135 149.75 752.141 156.317 748.406 161.903C744.672 167.488 739.366 171.841 733.158 174.411C726.95 176.98 720.119 177.652 713.53 176.34C706.941 175.028 700.888 171.791 696.138 167.04C691.388 162.288 688.153 156.235 686.843 149.645C685.533 143.055 686.207 136.225 688.778 130.018C691.35 123.811 695.704 118.506 701.291 114.773C706.878 111.041 713.445 109.048 720.164 109.048C724.626 109.048 729.045 109.927 733.167 111.635C737.29 113.343 741.035 115.847 744.19 119.002C747.345 122.158 749.847 125.904 751.554 130.027C753.26 134.15 754.138 138.569 754.137 143.031Z" fill="#B6C3E5"/>
</g>
<path d="M751.695 143.031C751.693 149.267 749.842 155.362 746.376 160.546C742.911 165.73 737.985 169.769 732.224 172.154C726.462 174.539 720.123 175.162 714.007 173.944C707.891 172.727 702.274 169.723 697.865 165.313C693.457 160.903 690.455 155.284 689.239 149.168C688.023 143.052 688.648 136.713 691.035 130.952C693.422 125.191 697.463 120.267 702.648 116.803C707.833 113.339 713.929 111.49 720.165 111.49C724.306 111.49 728.407 112.306 732.233 113.891C736.059 115.476 739.536 117.8 742.464 120.729C745.392 123.658 747.714 127.135 749.298 130.962C750.882 134.788 751.697 138.889 751.695 143.031Z" fill="white"/>
<path d="M720.165 165.815C732.749 165.815 742.95 155.614 742.95 143.031C742.95 130.447 732.749 120.246 720.165 120.246C707.581 120.246 697.38 130.447 697.38 143.031C697.38 155.614 707.581 165.815 720.165 165.815Z" fill="#817FED"/>
<path d="M703.42 147.588C703.436 142.532 705.392 137.675 708.884 134.018C712.376 130.362 717.138 128.184 722.188 127.935C727.238 127.686 732.191 129.385 736.025 132.68C739.86 135.975 742.284 140.617 742.797 145.647C742.903 144.779 742.958 143.905 742.961 143.031C742.967 138.805 741.798 134.661 739.584 131.061C737.371 127.461 734.2 124.547 730.427 122.645C726.653 120.743 722.425 119.927 718.215 120.289C714.005 120.65 709.978 122.175 706.584 124.693C703.19 127.211 700.563 130.623 698.996 134.548C697.429 138.472 696.984 142.755 697.71 146.918C698.437 151.081 700.306 154.96 703.109 158.122C705.913 161.284 709.54 163.605 713.586 164.825C710.508 163.119 707.943 160.621 706.155 157.591C704.368 154.56 703.423 151.106 703.42 147.588Z" fill="#6260D7"/>
<path d="M664.982 244.592C660.701 248.229 647.725 257.568 642.504 261.236C637.282 264.904 632.123 269.481 629.824 280.322C627.525 291.162 624.562 315.02 623.601 323.388C622.948 329.314 627.504 327.832 628.792 322.315C630.314 315.745 632.756 303.689 633.982 297.425C635.208 291.162 638.253 282.61 645.129 278.493C652.006 274.375 663.183 268.888 667.27 266.232C671.092 263.79 670.479 256.301 669.866 251.417C669.253 246.533 668.037 241.996 664.982 244.592Z" fill="#C0D9FF"/>
<g style="mix-blend-mode:multiply">
<path d="M675.649 220.867C680.267 234.712 693.09 267.867 702.02 285.298C704.891 290.876 707.006 291.122 709.56 291.622C713.33 292.378 727.349 292.981 731.017 292.644C734.685 292.307 734.174 291.132 730.107 290.529C726.041 289.926 713.831 290.233 709.162 285.706C704.492 281.18 703.031 277.451 700.477 272.363C694.571 260.562 680.461 226.691 677.897 220.356C675.332 214.022 674.014 215.912 675.649 220.867Z" fill="#CED7ED"/>
</g>
<path d="M709.366 31.3249C698.504 40.0811 684.711 58.9117 679.347 70.9171C677.068 76.0258 675.26 80.1127 680.696 82.054C689.309 85.1192 703.654 86.1409 712.727 86.4475C715.639 86.5599 716.957 84.6186 712.114 83.9136C703.858 82.7079 697.667 81.5023 690.831 79.0194C686.632 77.4971 685.723 75.1266 687.623 70.0691C691.281 60.0969 702.591 41.675 710.357 33.1333C712.359 30.9775 712.431 28.934 709.366 31.3249Z" fill="#E4EFFF"/>
<path d="M751.869 336.691C752.594 336.519 753.265 336.169 753.821 335.673C754.378 335.177 754.802 334.551 755.056 333.85C754.719 332.604 751.245 333.513 748.987 334.157C744.193 335.47 739.216 335.991 734.254 335.7C732.333 335.413 732.21 334.739 734.734 334.065C737.595 333.299 738.3 331.081 738.821 328.098C739.342 325.114 740.752 323.091 744.604 322.315C746.341 321.967 749.314 318.677 744.737 319.474C734.08 321.344 710.621 321.068 701.824 319.761C698.963 319.331 699.413 320.956 701.824 321.436C704.235 321.916 712.041 323.572 713.973 323.48C715.904 323.388 718.754 323.919 719.766 325.656C723.505 332.011 721.544 336.497 718.274 337.058C712.757 338.009 699.811 337.641 693.078 335.322C690.35 334.392 689.502 335.924 690.084 337.426C698.064 339.643 704.818 340.389 719.408 340.389C735.449 340.379 742.693 339.47 751.869 336.691Z" fill="#7270DB"/>
<path d="M649.185 257.986C645.966 260.091 647.325 263.218 650.411 261.389C654.069 259.202 658.871 256.76 660.966 255.452C663.06 254.145 660.874 250.916 658.432 252.387C655.99 253.859 651.719 256.331 649.185 257.986Z" fill="#E4EFFF"/>
<path d="M630.691 284.909C629.363 288.894 627.902 299.07 627.626 302.146C627.35 305.221 630.344 305.997 630.855 303.034C631.59 298.774 633.276 289.016 634.012 285.665C634.523 283.346 631.815 281.609 630.691 284.909Z" fill="#E4EFFF"/>
<path d="M770.26 258.64C768.912 265.363 771.967 269.154 776.002 271.228C782.879 274.763 792.892 279.402 797.97 282.59C803.048 285.778 806.144 291.428 807.789 299.959C809.434 308.491 812.049 305.875 811.222 299.683C810.053 292.072 808.454 284.533 806.43 277.103C804.488 270.4 799.278 267.161 792.82 262.513C788.382 259.256 783.648 256.423 778.679 254.053C775.584 252.53 771.486 252.551 770.26 258.64Z" fill="#77A1DF"/>
<path d="M697.196 314.325C694.621 314.111 692.884 315.664 696.062 316.798C699.239 317.932 712.604 318.566 719.745 318.709C726.887 318.852 723.986 315.879 719.602 315.95C715.219 316.022 702.499 314.744 697.196 314.325Z" fill="#E4EFFF"/>
<path d="M666.576 99.8321C658.892 124.568 661.089 163.782 668.926 193.893C670.479 199.86 674.668 201.423 673.013 191.073C667.189 154.873 669.1 129.084 671.858 113.421C673.125 106.269 675.772 101.855 680.533 100.496C688.298 98.2791 698.096 98.6265 707.394 98.6265C712.605 98.6265 713.065 94.6519 706.628 94.6519C700.191 94.6519 682.403 92.8434 674.75 91.6582C668.967 90.7795 668.732 92.8945 666.576 99.8321Z" fill="white"/>
</g>
<defs>
<linearGradient id="paint0_linear" x1="685.222" y1="193.182" x2="792.201" y2="712.754" gradientUnits="userSpaceOnUse">
<stop stop-color="#E7E7F8"/>
<stop offset="0.47" stop-color="#DADAF5"/>
<stop offset="1" stop-color="#CCCCEE"/>
</linearGradient>
<linearGradient id="paint1_linear" x1="642.513" y1="-61.5068" x2="793.151" y2="562.971" gradientUnits="userSpaceOnUse">
<stop stop-color="#EBEBFD"/>
<stop offset="1" stop-color="#DBDBF7"/>
</linearGradient>
<linearGradient id="paint2_linear" x1="113.205" y1="462.213" x2="92.7049" y2="532.245" gradientUnits="userSpaceOnUse">
<stop stop-color="#CDCDE4"/>
<stop offset="0.91" stop-color="#D9D9F2"/>
<stop offset="1" stop-color="#D2D2F3"/>
</linearGradient>
<linearGradient id="paint3_linear" x1="1307.5" y1="277.001" x2="1188.67" y2="525.509" gradientUnits="userSpaceOnUse">
<stop stop-color="#CDCDE4"/>
<stop offset="0.91" stop-color="#D9D9F2"/>
<stop offset="1" stop-color="#D2D2F3"/>
</linearGradient>
<radialGradient id="paint4_radial" cx="0" cy="0" r="1" gradientUnits="userSpaceOnUse" gradientTransform="translate(720.724 345.599) rotate(87.4886) scale(131.905 15.5089)">
<stop stop-color="#FFD28E"/>
<stop offset="1" stop-color="#FF996D"/>
</radialGradient>
<linearGradient id="paint5_linear" x1="710.406" y1="156.355" x2="786.402" y2="156.355" gradientUnits="userSpaceOnUse">
<stop stop-color="#C3CDEB"/>
<stop offset="1" stop-color="#EAEEFB"/>
</linearGradient>
</defs>
</svg>
